<svg width="104" height="42" viewBox="0 0 104 42" fill="none" xmlns="http://www.w3.org/2000/svg">
<g clip-path="url(#clip0_1_68)">
<path d="M30.927 1.46222C30.8589 1.46381 30.8351 1.47888 30.7957 1.48063C30.7447 1.48222 30.53 1.56192 30.2728 1.59001C29.3339 1.6924 29.0376 1.5508 28.9139 1.62794C28.7513 1.72922 27.3734 2.78273 26.0974 2.70022C25.7498 2.67895 25.8668 2.96488 25.5818 3.2525C25.3226 3.51398 24.946 3.86167 24.1532 4.69101C23.9096 4.94587 23.8752 6.52441 22.2909 7.81526C20.7066 9.10612 19.5948 10.0603 19.4095 10.6496C19.2242 11.2389 18.4089 12.2772 18.1217 13.5867C18.1217 13.5867 18.0335 14.7207 17.8808 14.8308C17.7048 14.9578 17.1905 15.2039 17.4453 13.6616C17.4908 13.3859 17.2693 13.3623 17.3434 13.222C17.4175 13.0817 17.7881 12.6419 18.0475 11.8375C18.3069 11.033 17.9086 10.1257 18.1958 8.92835C18.483 7.73102 17.5371 6.82461 17.4268 6.70217C17.2573 6.5138 17.3055 6.16818 17.1558 5.63089C17.0747 5.33975 15.9105 4.32934 15.7809 4.27951C15.3661 4.12005 14.4352 3.52325 14.323 3.51238C14.1754 3.49968 13.9427 3.25114 13.5543 3.70233C13.3571 3.93123 13.311 4.04126 12.9312 4.05996C12.5513 4.07838 12.5373 4.51511 12.4446 4.7209C12.352 4.92676 12.2452 4.91272 11.9625 5.04717C11.6131 5.21345 11.2041 5.1383 11.1239 5.21568C11.0113 5.3241 10.8024 5.38343 10.6634 5.36457C10.5244 5.34616 9.85525 5.45998 9.45501 5.53197C9.29754 5.56038 9.11877 5.55037 8.9798 5.71848C8.84082 5.88679 8.04139 6.67415 7.98579 6.75835C7.93021 6.84264 7.90854 6.87914 7.90065 6.9147C7.80312 7.35417 7.50038 7.42557 7.80965 8.19894C8.25256 8.99265 9.37052 8.92303 9.49599 8.92847C10.5015 8.97181 10.6614 8.98229 10.756 9.29338C10.9135 9.59273 10.2187 11.0613 9.92219 11.8003C9.62571 12.5392 9.84795 15.5886 9.84795 15.5886C9.84684 15.5892 9.71497 17.7919 10.7097 18.4884C11.0047 18.6947 11.071 18.4603 11.1081 19.2086C11.1098 19.2075 11.2452 19.9794 11.6084 19.8635C12.2949 19.6444 12.3191 20.3236 12.3218 20.3592C12.3328 20.5046 12.1735 21.0187 12.4237 21.1029C12.6738 21.1872 12.5997 20.9954 13.1834 21.4536C13.7671 21.912 14.8389 22.8846 15.0162 23.0673C15.186 23.2425 15.3154 22.731 15.4887 22.6091C15.863 22.3457 16.0616 22.9388 16.1913 23.0323C16.297 23.1086 16.6001 23.1965 17.074 23.0947C17.1819 23.0709 17.3234 23.1074 17.4453 23.0531C18.3255 22.6042 18.1029 22.884 18.3036 22.6651C18.3967 22.5636 18.5136 22.5337 18.5931 22.468C18.7625 22.3281 18.8969 22.2168 18.8785 22.2848C18.9143 22.5233 19.0254 22.9098 19.0488 23.6323C19.08 24.5946 19.0018 25.7619 19.0018 25.878C19.0018 25.9525 19.1559 26.376 19.2434 26.8887C19.3983 27.7958 19.5267 28.9958 19.5207 29.1332C19.513 29.3104 20.8813 34.6936 18.9833 37.6641C18.8653 37.8487 18.8004 37.9889 18.7792 38.1079C18.7218 38.4306 18.8457 38.6099 17.5843 39.1048C16.1575 39.5163 16.8616 40.302 17.6584 40.4517C18.4552 40.6013 20.4847 40.6257 20.6695 39.9652C20.81 39.4635 20.373 38.8802 20.6695 38.637C20.9845 38.4873 21.0957 35.9056 21.0957 35.9056C21.0957 35.9056 21.2255 33.4922 21.5775 32.8374C21.9296 32.1826 22.2817 30.7796 22.0594 29.9377C21.837 29.0958 22.1299 28.2039 22.2446 28.0669C22.4352 27.8393 22.1537 27.5656 22.9487 26.4018C23.0665 26.2294 23.0293 25.6985 23.046 25.1298C23.0634 24.5458 23.1794 23.8169 23.0969 23.5208C23.0612 23.3924 24.709 23.0308 24.913 23.3711C25.0998 23.6828 24.459 25.139 24.6998 25.5038C24.9407 26.0276 24.3199 26.963 24.3199 26.963C24.3199 26.963 23.4744 29.2562 24.7277 30.4614C26.0535 31.7364 27.6697 32.9997 28.2669 33.8289C28.429 34.0541 28.42 34.4643 28.0444 34.6334C27.9298 34.6851 28.0003 35.7998 26.5435 36.1673C26.1516 36.2662 25.4039 37.2431 26.4323 37.4957C26.4323 37.4957 28.884 37.4942 29.3137 37.0093C29.567 36.7247 29.5039 36.107 29.7308 35.6622C29.9592 35.6084 30.6271 37.204 30.8796 37.346C31.3455 37.608 32.3128 37.1404 32.3064 37.0839C32.2558 36.6441 32.1578 34.7251 31.6023 34.2591C30.9416 33.7047 30.268 33.6604 30.9536 32.5566C31.1648 31.6828 33.2194 28.8762 33.4182 28.497C33.5294 28.1602 32.4359 23.3568 34.7709 20.1905C34.8316 20.1081 35.3893 22.369 36.0896 24.2058C36.4889 25.2529 37.0344 26.0171 37.3095 26.4952C37.5252 26.8702 37.5689 28.3659 37.5504 28.7775C37.5317 29.1891 38.2731 32.407 37.5875 35.3067C37.5875 35.3067 37.3569 35.8332 37.4114 36.1018C37.4716 36.3985 37.5503 36.476 36.8833 37.5704C36.3274 38.5807 37.5088 38.646 37.921 38.4683C38.1683 38.362 38.7818 39.351 39.913 37.795C40.0041 37.6697 39.7841 37.4539 39.7178 37.1964C39.6144 36.7947 39.6443 36.2594 39.6443 36.1112C39.6443 35.868 38.8289 34.3526 39.2366 31.0973L39.5516 29.0769C39.5516 29.0769 39.5889 28.6737 39.4627 28.3514C39.39 28.1657 39.1227 28.0949 39.1255 27.9169L39.1625 25.5223C39.1625 25.5223 38.2359 22.0613 38.866 18.881C38.866 18.881 38.9587 18.1513 39.0143 17.9455C39.0699 17.7397 38.9614 17.3757 39.2552 17.085C39.337 17.0038 39.7967 17.3046 39.6999 18.6564C39.675 19.0037 40.1957 19.9172 39.8852 21.762C39.7359 22.649 39.3766 21.2874 39.8033 24.5999C39.8209 24.7361 40.0569 24.778 40.1662 24.7021C40.395 24.544 40.6047 24.1278 40.6449 23.9882C40.9913 22.7833 41.2971 22.3533 41.627 21.5374C41.7128 21.3252 41.7196 20.9013 41.8864 20.9013C42.002 20.9013 41.895 20.6533 41.8462 20.3323C41.8247 20.1902 41.9076 19.9512 41.8678 19.8537C41.738 19.5356 41.5991 19.4141 41.8773 19.3393C42.0492 19.2929 42.2656 18.8217 41.8678 18.3944C41.6992 18.2132 41.5358 18.2876 41.4835 16.6865C41.4641 16.0925 41.3476 15.959 40.3014 14.6648C38.8584 12.8798 38.0869 11.0402 38.0869 11.0402C38.0869 11.0402 36.9202 8.57261 35.864 7.59979C34.7793 6.59356 34.6504 4.65156 34.4742 4.28847C34.1365 3.59241 33.7637 3.08367 33.2191 2.56216C32.7732 2.13515 32.2335 1.64404 31.3242 1.50088C31.1075 1.46675 30.9951 1.45968 30.927 1.46222ZM29.9655 22.1695C30.1229 22.1806 30.1222 22.4791 30.1292 22.8089C30.1383 23.2485 30.5368 25.0257 30.4998 25.3625C30.4627 25.6992 30.7314 27.9348 30.7592 28.3745C30.7869 28.8141 30.6363 29.5901 30.4905 30.3108C30.3452 31.0285 29.7823 31.6026 29.6752 31.9477C29.5216 32.442 29.0485 32.051 28.8877 32.0131C28.887 32.0129 28.7764 31.9197 28.5912 31.9385C28.112 31.9866 28.2205 31.8073 27.785 31.5736C27.3496 31.3396 27.7016 31.3307 27.0716 30.5822C26.5791 29.8948 26.5913 30.0716 26.7197 29.656C26.7939 29.4155 26.8516 29.1386 27.0496 28.834C27.2629 28.5058 27.5165 28.1445 27.7943 27.9817C27.9584 27.8855 28.089 27.9553 28.3641 27.7806C28.669 27.5867 28.3966 27.0463 28.4058 26.9154C28.415 26.7846 28.554 26.7938 28.6281 26.6347C28.7022 26.4758 28.6377 25.9986 28.7301 25.4654C28.8228 24.9322 29.001 25.0991 29.0775 24.9509C29.2446 24.6274 29.2581 24.8107 29.3693 24.0249C29.4805 23.2392 29.5422 23.5672 29.5871 23.2252C29.6825 22.499 29.6628 22.3318 29.7492 22.2663C29.843 22.1954 29.913 22.1662 29.9655 22.1695Z" fill="#181818" stroke="#F2F2F2" stroke-width="0.199993"/>
<path d="M88.5457 27.0986L88.5782 26.8959L89.9928 27.1301L89.9603 27.3329L89.3672 27.2347L89.0969 28.9196L88.8685 28.8817L89.1388 27.1969L88.5457 27.0986ZM88.2062 29.8751L88.4788 29.9202L88.8684 31.5933L88.8905 31.5969L89.7828 30.1362L90.0554 30.1813L89.7526 32.069L89.539 32.0336L89.769 30.5994L89.7506 30.5964L88.9311 31.9329L88.7248 31.8988L88.3655 30.367L88.3471 30.3639L88.117 31.7981L87.9033 31.7627L88.2062 29.8751Z" fill="#808080"/>
<path fill-rule="evenodd" clip-rule="evenodd" d="M81.3393 23.9317C79.0207 23.5474 76.6782 24.1578 75.0053 25.8106C72.0321 28.7422 72.3092 33.8619 75.6128 37.2436C78.9242 40.6197 84.0132 40.9828 86.9874 38.0444C89.9605 35.1128 89.6846 29.9863 86.3799 26.6114C84.9316 25.1313 83.1426 24.2306 81.3393 23.9317Z" fill="#181818"/>
<path fill-rule="evenodd" clip-rule="evenodd" d="M81.4533 27.7789C81.4085 27.7707 81.3636 27.7634 81.3187 27.7569C80.4566 27.63 79.5864 27.7685 78.8202 28.2124C76.7849 29.3907 76.261 32.2993 77.6521 34.6993C79.049 37.1073 81.8315 38.0958 83.8747 36.9119C85.911 35.7268 86.4339 32.8251 85.0438 30.4182C84.1974 28.9644 82.8435 28.0283 81.4533 27.7789Z" fill="#FF2D81"/>
<path fill-rule="evenodd" clip-rule="evenodd" d="M81.8776 34.2928C80.9597 34.822 79.5777 34.1586 78.7971 32.8152C78.0107 31.464 78.1212 29.9354 79.0458 29.4073C79.9581 28.8701 81.34 29.5336 82.1264 30.8848C82.9071 32.2281 82.7966 33.7567 81.8776 34.2928Z" fill="#3F76CB"/>
<path fill-rule="evenodd" clip-rule="evenodd" d="M88.7588 7.54732C86.5319 7.17287 84.0918 7.5081 81.8307 8.65754C76.6614 11.2916 74.3792 17.1751 76.741 21.8071C79.096 26.438 85.1996 28.0648 90.3678 25.4375C95.5361 22.8102 97.8183 16.9267 95.4576 12.2879C94.1329 9.68306 91.622 8.0287 88.7588 7.54732Z" fill="#181818"/>
<path d="M89.6636 14.3807C89.5288 14.356 89.3934 14.338 89.258 14.3268C89.1225 14.3156 88.987 14.3112 88.852 14.3138C88.9847 14.3597 89.1161 14.412 89.2458 14.4707C89.3754 14.5294 89.5033 14.5944 89.6289 14.6656C89.7545 14.7368 89.8778 14.814 89.9984 14.8974C90.1189 14.9807 90.2367 15.07 90.3512 15.1651C90.4658 15.2603 90.5771 15.3613 90.6847 15.4679C90.7923 15.5746 90.8962 15.687 90.9958 15.8048C91.0955 15.9227 91.191 16.0459 91.2817 16.1746C91.3725 16.3033 91.4585 16.4374 91.5394 16.5767C91.6211 16.7172 91.6955 16.8597 91.7629 17.0036C91.8302 17.1475 91.8904 17.2929 91.9436 17.4392C91.9968 17.5855 92.043 17.7327 92.0823 17.8803C92.1215 18.0279 92.1539 18.176 92.1795 18.3239C92.2051 18.4719 92.2239 18.6197 92.236 18.7669C92.2481 18.9142 92.2535 19.0607 92.2523 19.2062C92.2511 19.3517 92.2433 19.496 92.229 19.6387C92.2147 19.7814 92.194 19.9224 92.1668 20.0613C92.1396 20.2002 92.1062 20.3369 92.0663 20.471C92.0265 20.6051 91.9803 20.7364 91.9281 20.8646C91.8758 20.9928 91.8174 21.1178 91.7528 21.2391C91.6883 21.3604 91.6177 21.4781 91.5411 21.5915C91.4645 21.7049 91.382 21.8141 91.2936 21.9186C91.2051 22.023 91.1108 22.1227 91.0108 22.2172C90.9107 22.3116 90.8049 22.4009 90.6935 22.4844C90.582 22.5679 90.4649 22.6456 90.3422 22.717C90.2018 22.7985 90.0579 22.8694 89.9112 22.9303C89.7646 22.9911 89.6152 23.0418 89.4638 23.0825C89.3124 23.1233 89.1589 23.154 89.0042 23.1753C88.8495 23.1965 88.6936 23.2082 88.5372 23.2105C88.6728 23.258 88.8098 23.2988 88.9476 23.3327C89.0854 23.3665 89.2242 23.3934 89.3632 23.4132C89.5023 23.4329 89.6416 23.4456 89.7809 23.4509C89.9201 23.4562 90.0592 23.4543 90.1976 23.4448C90.336 23.4353 90.4738 23.4184 90.6103 23.3938C90.7469 23.3691 90.8822 23.3368 91.0158 23.2966C91.1494 23.2564 91.2813 23.2084 91.411 23.1523C91.5407 23.0962 91.6682 23.0322 91.7929 22.9599C91.916 22.8885 92.0335 22.8108 92.1453 22.7274C92.2571 22.644 92.3632 22.5548 92.4635 22.4603C92.5637 22.3659 92.6582 22.2662 92.7468 22.1618C92.8354 22.0574 92.918 21.9482 92.9946 21.8348C93.0713 21.7214 93.1419 21.6037 93.2065 21.4824C93.271 21.3611 93.3295 21.2361 93.3817 21.1079C93.434 20.9797 93.48 20.8483 93.5198 20.7143C93.5595 20.5802 93.593 20.4435 93.62 20.3046C93.6471 20.1656 93.6677 20.0246 93.6819 19.8819C93.6961 19.7392 93.7037 19.5948 93.7048 19.4493C93.7058 19.3038 93.7003 19.1572 93.6881 19.01C93.6758 18.8627 93.6569 18.7149 93.6312 18.5669C93.6054 18.4189 93.5729 18.2708 93.5335 18.1232C93.4941 17.9755 93.4478 17.8283 93.3945 17.682C93.3412 17.5357 93.2809 17.3904 93.2136 17.2464C93.1462 17.1025 93.0718 16.96 92.9901 16.8195C92.8933 16.6521 92.789 16.4921 92.6781 16.34C92.5671 16.1878 92.4496 16.0434 92.3263 15.9071C92.203 15.7707 92.074 15.6424 91.94 15.5224C91.806 15.4024 91.667 15.2907 91.524 15.1876C91.3809 15.0845 91.2338 14.99 91.0834 14.9044C90.933 14.8187 90.7793 14.7419 90.6231 14.6743C90.467 14.6067 90.3084 14.5483 90.1482 14.4992C89.988 14.4502 89.8262 14.4106 89.6636 14.3807Z" fill="#40CA77"/>
<path fill-rule="evenodd" clip-rule="evenodd" d="M84.0039 15.5903C82.5825 15.3523 81.2534 16.3282 81.024 17.774C80.7946 19.2198 81.7533 20.5788 83.1748 20.8168C84.5894 21.0536 85.9185 20.0777 86.1479 18.632C86.3773 17.1862 85.4186 15.8272 84.0039 15.5903Z" fill="#FF2D81"/>
<path fill-rule="evenodd" clip-rule="evenodd" d="M84.2503 19.8556C83.5703 20.2434 82.692 19.9988 82.2891 19.2973C81.8852 18.6026 82.1028 17.7123 82.776 17.3234C83.4502 16.9276 84.3343 17.1802 84.7382 17.8749C85.1411 18.5764 84.9245 19.4599 84.2503 19.8556Z" fill="#3F76CB"/>
<path d="M89.5246 9.52742C89.3083 9.48973 89.0858 9.46066 88.8632 9.43823C88.5293 9.40458 88.1953 9.38613 87.8822 9.37738C87.5692 9.36862 87.2771 9.36958 87.0266 9.37473C86.5257 9.38503 86.1918 9.41214 86.1918 9.41214C85.914 9.43945 85.6519 9.48435 85.4149 9.53631C85.178 9.58827 84.9662 9.64724 84.7891 9.70287C84.435 9.81412 84.2198 9.91175 84.2198 9.91175L82.9127 10.4937L82.8474 10.5232C82.6062 10.6355 82.3697 10.7542 82.1365 10.8775C81.9033 11.0008 81.6734 11.1287 81.4454 11.2593C81.438 11.2635 81.4302 11.2677 81.4228 11.2719C81.4226 11.2721 81.4226 11.2721 81.4224 11.2723L81.4219 11.2726C81.1795 11.4746 80.9542 11.6742 80.7454 11.8688C80.5366 12.0634 80.3445 12.253 80.1683 12.4351C79.9922 12.6172 79.8322 12.7917 79.6878 12.9562C79.5434 13.1207 79.4145 13.2751 79.3009 13.4169C79.0736 13.7005 78.9069 13.9335 78.797 14.0957C78.6871 14.2579 78.6341 14.3493 78.634 14.3494L78.634 14.3498C78.5688 14.4873 78.5118 14.6287 78.4623 14.773C78.4127 14.9173 78.3707 15.0645 78.3352 15.2136C78.2997 15.3626 78.2709 15.5136 78.248 15.6653C78.2252 15.8171 78.2081 15.9697 78.1962 16.1221C78.1842 16.2745 78.1775 16.4266 78.175 16.5776C78.1725 16.7286 78.1744 16.8784 78.1799 17.0259C78.1908 17.3209 78.216 17.6069 78.2494 17.8757C78.2828 18.1445 78.3243 18.3962 78.3678 18.6225C78.4113 18.8487 78.4568 19.0496 78.4981 19.2169C78.5808 19.5514 78.6467 19.7515 78.6467 19.7515L78.6471 19.7515C78.7035 19.9479 78.7687 20.1385 78.8397 20.3218C78.9107 20.5051 78.9874 20.681 79.0668 20.848C79.1461 21.0149 79.228 21.1729 79.3095 21.3203C79.391 21.4676 79.472 21.6043 79.5496 21.7288C79.7047 21.9777 79.8457 22.1776 79.9479 22.3152C80.0501 22.4528 80.1136 22.5282 80.1137 22.5283C80.2073 22.6358 80.3061 22.7333 80.4084 22.8218C80.5107 22.9102 80.6165 22.9897 80.7241 23.061C80.8316 23.1323 80.941 23.1955 81.0504 23.2514C81.1598 23.3074 81.2692 23.3562 81.3771 23.3987C81.4849 23.4412 81.5911 23.4774 81.694 23.5083C81.7968 23.5392 81.8963 23.5647 81.9908 23.5859C82.1797 23.6281 82.3485 23.6528 82.4834 23.6671C82.6939 23.6896 82.8089 23.689 82.8089 23.689L84.9178 23.7538L84.9182 23.7539C85.2531 23.7766 85.5517 23.7845 85.8113 23.7836C86.071 23.7828 86.2917 23.7731 86.4705 23.7607C86.828 23.7357 87.0182 23.6994 87.0182 23.6994C87.1471 23.6739 87.2715 23.6399 87.392 23.5963C87.5125 23.5526 87.629 23.4993 87.7418 23.4351C87.8546 23.3709 87.9637 23.2959 88.0695 23.2088C88.1753 23.1217 88.2779 23.0226 88.3774 22.9101C88.4769 22.7977 88.5735 22.672 88.6674 22.5319C88.7613 22.3918 88.8527 22.2374 88.9417 22.0672C89.0307 21.897 89.1173 21.7111 89.2021 21.5085C89.2868 21.3058 89.3696 21.0863 89.4506 20.8488C89.5082 20.6308 89.5715 20.4291 89.6183 20.208C89.6537 20.0407 89.6829 19.8744 89.7067 19.7107C89.7304 19.5468 89.7484 19.3855 89.7614 19.228C89.7744 19.0704 89.7823 18.9166 89.7855 18.7681C89.7888 18.6196 89.7874 18.4764 89.7819 18.3398C89.7735 18.1342 89.7573 17.9439 89.7377 17.774C89.7181 17.6042 89.6952 17.4548 89.6732 17.3311C89.6294 17.0838 89.5897 16.9394 89.5897 16.9394L89.5898 16.939C89.561 16.8221 89.5276 16.7329 89.4912 16.6218C89.4378 16.4591 89.3772 16.3031 89.312 16.1546C89.2468 16.0061 89.1772 15.8652 89.1055 15.7327C89.0339 15.6002 88.9602 15.4761 88.8873 15.3614C88.8145 15.2466 88.7423 15.1411 88.6734 15.0458C88.5358 14.8552 88.4115 14.7052 88.3216 14.6029C88.2317 14.5006 88.1762 14.446 88.1762 14.446L84.956 12.4156L84.953 12.4134L84.954 12.4069L84.9572 12.4058C85.1465 12.3336 85.3271 12.239 85.518 12.152C85.7244 12.058 85.9383 11.9775 86.1548 11.9087C86.3714 11.8398 86.5904 11.7826 86.8068 11.7352C87.0232 11.6877 87.2369 11.6499 87.4429 11.6199C87.6489 11.59 87.8471 11.5679 88.0325 11.5516C88.4031 11.5191 88.722 11.51 88.9484 11.5092C89.1748 11.5083 89.3085 11.5156 89.3085 11.5156L89.3089 11.5156C89.477 11.5302 89.6385 11.5423 89.7919 11.5584C89.9452 11.5745 90.0903 11.5945 90.2257 11.6247C90.4731 11.6801 90.695 11.743 90.8942 11.8108C91.0934 11.8786 91.2697 11.9511 91.4256 12.0258C91.5815 12.1005 91.7169 12.1773 91.8345 12.2534C91.952 12.3295 92.0517 12.4049 92.1359 12.4769C92.2201 12.5489 92.2887 12.6175 92.3444 12.6799C92.4 12.7422 92.4427 12.7984 92.4749 12.8455C92.5393 12.9398 92.5618 12.9983 92.5618 12.9983L92.5622 12.9988L92.5621 12.9992C92.6147 13.1943 92.6795 13.3813 92.7521 13.5584C92.8247 13.7356 92.9051 13.9028 92.9889 14.0584C93.0728 14.2139 93.1601 14.3578 93.2465 14.4881C93.3329 14.6185 93.4185 14.7353 93.4989 14.8369C93.6262 14.9978 93.7408 15.1184 93.8236 15.1989C93.9064 15.2794 93.9574 15.3197 93.9575 15.3197L93.9579 15.3198C94.054 15.3824 94.1415 15.431 94.2212 15.4674C94.3009 15.5038 94.3727 15.5278 94.4372 15.5411C94.5018 15.5544 94.5592 15.5571 94.61 15.5507C94.6609 15.5443 94.7052 15.5288 94.7439 15.506C94.7826 15.4833 94.8157 15.4532 94.8439 15.4171C94.872 15.381 94.8952 15.3389 94.9142 15.2926C94.9521 15.1999 94.9729 15.09 94.9819 14.9754C94.9901 14.8717 94.9883 14.7643 94.9809 14.6614C94.9735 14.5585 94.9606 14.4602 94.9467 14.3748C94.9189 14.204 94.8869 14.0849 94.8869 14.0849L94.8865 14.0844L94.8866 14.084C94.8766 13.9611 94.8577 13.8368 94.8318 13.7133C94.8059 13.5897 94.7731 13.4668 94.7352 13.3466C94.6973 13.2264 94.6543 13.1089 94.6083 12.9962C94.5623 12.8834 94.5131 12.7754 94.4629 12.6741C94.3562 12.4592 94.245 12.2748 94.1604 12.1442C94.0758 12.0137 94.0179 11.9369 94.0179 11.9369C93.9516 11.8525 93.8824 11.7708 93.8107 11.6916C93.6992 11.5685 93.5813 11.451 93.4574 11.3389C93.3336 11.2268 93.2038 11.12 93.0685 11.0182C92.9332 10.9164 92.7925 10.8196 92.6468 10.7276C92.5011 10.6356 92.3504 10.5484 92.1953 10.4656C92.0401 10.3828 91.8804 10.3044 91.7167 10.2303C91.5531 10.1561 91.3854 10.086 91.2143 10.0199C90.8719 9.88753 90.5155 9.7707 90.1489 9.66701C89.9511 9.61104 89.7409 9.56503 89.5246 9.52742ZM83.3754 13.1365L85.3631 15.0475L85.3635 15.0475C85.3635 15.0475 85.5209 15.2278 85.7414 15.4968C85.962 15.7657 86.2456 16.1233 86.4985 16.4779C86.6283 16.66 86.75 16.8409 86.856 17.0078C86.9619 17.1747 87.0522 17.3276 87.1194 17.4539C87.1677 17.5448 87.193 17.5989 87.225 17.6468L87.2253 17.6473L87.2257 17.6478C87.2808 17.8002 87.3746 17.9808 87.4705 18.2195C87.5356 18.3817 87.6018 18.563 87.6546 18.7595C87.681 18.8577 87.7041 18.9598 87.722 19.0651C87.74 19.1704 87.7527 19.279 87.7586 19.3904C87.7644 19.5019 87.7633 19.6161 87.7534 19.7326C87.7436 19.8492 87.725 19.9681 87.6959 20.0888C87.6668 20.2095 87.6271 20.332 87.5751 20.4558C87.5231 20.5797 87.4587 20.7049 87.3803 20.8309L87.3791 20.8329L87.3774 20.8334C87.3789 20.8328 87.3764 20.8341 87.3742 20.8374C87.372 20.8407 87.369 20.8457 87.3657 20.852C87.359 20.8646 87.3504 20.8829 87.3393 20.9052C87.317 20.9498 87.2852 21.011 87.2414 21.0801C87.1975 21.1492 87.1416 21.2259 87.0709 21.301C87.0002 21.3761 86.9147 21.4496 86.8119 21.5121C86.7615 21.5428 86.7069 21.5698 86.6479 21.593C86.589 21.6162 86.5257 21.6356 86.4579 21.651C86.3902 21.6663 86.318 21.6777 86.2412 21.6849C86.1644 21.6921 86.0831 21.695 85.997 21.6936C85.9966 21.6936 85.7906 21.7053 85.4826 21.7017C85.064 21.6968 84.4625 21.6881 83.9547 21.6878C83.7008 21.6876 83.4703 21.6894 83.298 21.695C83.2118 21.6978 83.14 21.7018 83.0873 21.7067C83.061 21.7091 83.0395 21.7115 83.0233 21.7144C83.0071 21.7174 82.9957 21.7211 82.9919 21.7236L82.9909 21.7247L82.9897 21.7245C82.9897 21.7245 82.8565 21.74 82.6649 21.743C82.5691 21.7445 82.4586 21.7428 82.3429 21.7346C82.2272 21.7263 82.1063 21.7113 81.9894 21.6862C81.9075 21.6687 81.8341 21.6323 81.7684 21.5867C81.7028 21.541 81.6448 21.486 81.5934 21.4311C81.5934 21.4311 81.5616 21.3967 81.5097 21.3318C81.4577 21.2668 81.3856 21.1713 81.305 21.0488C81.2166 20.9145 81.1146 20.7497 81.0095 20.562C80.9044 20.3743 80.7961 20.1637 80.6951 19.938C80.594 19.7124 80.5002 19.4715 80.4239 19.2232C80.3858 19.099 80.352 18.973 80.324 18.8461C80.296 18.7191 80.2737 18.5912 80.2584 18.4634C80.2584 18.4634 80.2355 18.3412 80.218 18.1398C80.2092 18.0391 80.2018 17.9186 80.1992 17.7838C80.1966 17.6489 80.1988 17.4996 80.2094 17.3413C80.22 17.183 80.2391 17.0157 80.2699 16.8448C80.3007 16.6738 80.3433 16.4992 80.4014 16.3264C80.4304 16.24 80.4633 16.154 80.5005 16.0692C80.5377 15.9843 80.5792 15.9006 80.6253 15.8186C80.6715 15.7366 80.7224 15.6565 80.7784 15.5788C80.8345 15.5011 80.8958 15.4259 80.9626 15.3537C82.0295 14.2024 82.2693 13.9747 82.2693 13.9747C82.2693 13.9747 82.4436 13.8069 82.6684 13.6183C82.7808 13.524 82.9057 13.4246 83.0281 13.3384C83.1505 13.2522 83.2704 13.1793 83.3723 13.138L83.3754 13.1365Z" fill="#3F76CB"/>
<path fill-rule="evenodd" clip-rule="evenodd" d="M61.1745 20.6182C59.372 20.3142 57.3968 20.5856 55.5653 21.5172C51.387 23.641 49.5384 28.4122 51.4503 32.1606C53.361 35.9158 58.299 37.2292 62.4841 35.1066C66.6635 32.976 68.5109 28.2115 66.5991 24.4631C65.5243 22.3509 63.4921 21.009 61.1745 20.6182Z" fill="#181818"/>
<path d="M54.7514 32.1012C56.3229 33.8904 59.2669 33.8607 61.3357 32.0331C63.3967 30.2111 63.7989 27.2821 62.2331 25.5009C60.6616 23.7117 57.7176 23.7414 55.6498 25.5622C53.5877 27.391 53.1867 30.3132 54.7514 32.1012Z" fill="#FF2D81"/>
<path d="M57.4584 30.2642C58.1652 31.0655 59.6807 30.8872 60.8362 29.8681C61.9995 28.8433 62.3672 27.3578 61.6536 26.5553C60.9547 25.7484 59.4392 25.9267 58.2758 26.9515C57.1204 27.9706 56.7526 29.4561 57.4584 30.2642Z" fill="#3F76CB"/>
<path fill-rule="evenodd" clip-rule="evenodd" d="M58.9118 2.11245C56.0297 1.6312 53.1184 2.38589 51.0383 4.43714C47.3471 8.08494 47.6892 14.456 51.8073 18.6568C55.9186 22.8566 62.2505 23.309 65.9417 19.6612C69.6397 16.0145 69.2964 9.65026 65.1784 5.4494C63.3772 3.60855 61.1533 2.4867 58.9118 2.11245Z" fill="#181818"/>
<path d="M64.3886 7.70795C64.5104 7.79299 64.6278 7.88558 64.7401 7.98582C64.8524 8.08605 64.9596 8.19393 65.061 8.30952C65.1564 8.41789 65.2445 8.53047 65.3253 8.64665C65.4062 8.76284 65.4799 8.88267 65.5464 9.00562C65.6129 9.12857 65.6721 9.25464 65.7243 9.38331C65.7765 9.51198 65.8216 9.6432 65.8597 9.77654C65.8978 9.90987 65.9289 10.0453 65.9529 10.1822C65.977 10.3191 65.9941 10.4577 66.0042 10.5972C66.0144 10.7367 66.0176 10.8772 66.014 11.0182C66.0104 11.1592 66 11.3008 65.9827 11.4423C65.9655 11.5837 65.9414 11.7251 65.9107 11.866C65.88 12.0069 65.8426 12.1473 65.7984 12.2865C65.7543 12.4258 65.7034 12.5639 65.646 12.7004C65.5887 12.837 65.5247 12.972 65.4542 13.1048C65.3837 13.2376 65.3066 13.3683 65.2231 13.4963C65.1396 13.6243 65.0496 13.7496 64.9532 13.8718C64.8568 13.9939 64.7539 14.1129 64.6448 14.2282C64.5356 14.3434 64.4201 14.455 64.2983 14.5623C64.1447 14.6983 63.9855 14.8234 63.822 14.9376C63.6585 15.0518 63.4907 15.1551 63.3195 15.2475C63.1483 15.34 62.9738 15.4216 62.797 15.4924C62.6203 15.5631 62.4413 15.623 62.2611 15.6721C62.0809 15.7212 61.8996 15.7595 61.7182 15.7869C61.5368 15.8144 61.3553 15.8311 61.1747 15.8369C60.9942 15.8428 60.8147 15.8378 60.6372 15.822C60.4597 15.8063 60.2842 15.7798 60.1119 15.7425C60.211 15.8111 60.313 15.8748 60.4175 15.9334C60.5221 15.992 60.6292 16.0456 60.7386 16.0942C60.8479 16.1427 60.9594 16.1863 61.0729 16.2248C61.1863 16.2633 61.3015 16.2968 61.4184 16.3252C61.5352 16.3536 61.6537 16.377 61.7733 16.3953C61.8929 16.4136 62.0137 16.4269 62.1353 16.4352C62.257 16.4435 62.3795 16.4467 62.5025 16.4449C62.6256 16.4431 62.7491 16.4363 62.8729 16.4243C62.9966 16.4124 63.1206 16.3954 63.2444 16.3734C63.3681 16.3514 63.4918 16.3243 63.6149 16.2922C63.738 16.2601 63.8606 16.2228 63.9824 16.1806C64.1042 16.1383 64.2253 16.0911 64.3451 16.0387C64.4649 15.9864 64.5835 15.9289 64.7006 15.8664C64.8177 15.8039 64.9333 15.7364 65.047 15.6638C65.1608 15.5912 65.2727 15.5135 65.3824 15.4308C65.4921 15.348 65.5996 15.2602 65.7046 15.1673C65.8264 15.06 65.9419 14.9485 66.051 14.8333C66.1602 14.7181 66.2631 14.5992 66.3595 14.4771C66.4559 14.355 66.5458 14.2298 66.6293 14.1019C66.7128 13.974 66.7898 13.8435 66.8603 13.7109C66.9308 13.5782 66.9947 13.4434 67.0521 13.307C67.1094 13.1707 67.1603 13.0327 67.2044 12.8937C67.2485 12.7546 67.2858 12.6145 67.3166 12.4738C67.3473 12.3331 67.3713 12.1919 67.3885 12.0507C67.4057 11.9094 67.4161 11.7681 67.4197 11.6272C67.4232 11.4864 67.42 11.3462 67.4098 11.2069C67.3996 11.0676 67.3825 10.9292 67.3584 10.7924C67.3343 10.6556 67.3032 10.5204 67.2651 10.3873C67.227 10.2541 67.1819 10.123 67.1296 9.99447C67.0774 9.86593 67.0181 9.73996 66.9516 9.6171C66.8851 9.49424 66.8115 9.37448 66.7306 9.25834C66.6497 9.14221 66.5616 9.02968 66.4662 8.92132C66.3274 8.76234 66.1779 8.6179 66.0192 8.48791C65.8605 8.35792 65.6926 8.24236 65.5173 8.14129C65.3419 8.04022 65.1591 7.95363 64.9705 7.88142C64.7818 7.8092 64.5873 7.75139 64.3886 7.70795Z" fill="#40CA77"/>
<path fill-rule="evenodd" clip-rule="evenodd" d="M57.9942 6.92084C56.3834 6.65112 54.8737 7.71512 54.6217 9.30325C54.3698 10.8914 55.4725 12.3928 57.0833 12.6625C58.6941 12.9323 60.2038 11.8683 60.4557 10.2801C60.7077 8.692 59.605 7.19055 57.9942 6.92084Z" fill="#FF2D81"/>
<path fill-rule="evenodd" clip-rule="evenodd" d="M58.5779 11.6319C57.8969 12.0265 57.0117 11.7807 56.6021 11.0781C56.1925 10.3754 56.4169 9.4863 57.1047 9.09283C57.7857 8.69823 58.6708 8.94398 59.0736 9.64549C59.4833 10.3481 59.2589 11.2372 58.5779 11.6319Z" fill="#3F76CB"/>
<path d="M57.9438 3.6777C57.9432 3.67767 57.7719 3.67022 57.5308 3.68392C57.4102 3.69077 57.2722 3.70287 57.1291 3.72386C56.9861 3.74484 56.8381 3.77472 56.6978 3.81698L56.2312 3.96815L56.2308 3.96809C56.2308 3.96809 56.1684 3.9779 56.0571 4.00294C55.9458 4.02798 55.7855 4.06824 55.5895 4.12932C55.3935 4.1904 55.1617 4.27226 54.9076 4.38037C54.7805 4.43443 54.6478 4.49503 54.5112 4.56291C54.3746 4.63078 54.234 4.70591 54.0912 4.78897C54.091 4.78913 53.8429 4.95443 53.5907 5.12835C53.4645 5.21534 53.3373 5.30426 53.2397 5.37589C53.191 5.4117 53.1498 5.44321 53.1197 5.46776C53.1046 5.48004 53.0923 5.49071 53.0834 5.49916C53.0746 5.50761 53.0691 5.51455 53.0679 5.51715L53.0673 5.51831L53.0663 5.51899C53.0663 5.51899 52.8287 5.72269 52.5897 5.93481C52.4702 6.04087 52.3502 6.14927 52.2597 6.23487C52.2144 6.27766 52.1766 6.31483 52.1497 6.34324C52.1363 6.35746 52.1256 6.36938 52.1182 6.37871C52.1109 6.38804 52.1068 6.39573 52.1066 6.39703L52.1064 6.39867L51.6024 6.9355C51.6024 6.9355 51.4919 7.04031 51.3574 7.1937C51.2902 7.2704 51.2171 7.35922 51.1488 7.45319C51.0805 7.54716 51.017 7.64627 50.9692 7.74347C50.9692 7.74347 50.946 7.78747 50.9117 7.86717C50.8773 7.94686 50.8318 8.06224 50.787 8.20499C50.7423 8.34774 50.6984 8.51787 50.6673 8.70703C50.6517 8.80159 50.6393 8.90091 50.6316 9.00397C50.6239 9.10703 50.621 9.21384 50.6242 9.3233L50.6241 9.32371C50.6241 9.32392 50.6414 9.53384 50.6763 9.79833C50.6938 9.93057 50.7156 10.0765 50.7418 10.2167C50.7681 10.3568 50.7987 10.4912 50.8338 10.6005C50.8569 10.6725 50.8664 10.7448 50.8894 10.7881L50.8893 10.7885L50.8897 10.789C50.8897 10.789 50.9933 11.0862 51.1036 11.3867C51.1587 11.537 51.2154 11.688 51.2616 11.803C51.2847 11.8606 51.3056 11.9092 51.3218 11.9441C51.3299 11.9615 51.337 11.9756 51.3427 11.9855C51.3456 11.9904 51.3479 11.9942 51.35 11.9969C51.3521 11.9997 51.3541 12.0013 51.3542 12.0013L51.3558 12.002L51.3568 12.0039C51.3568 12.0039 51.5048 12.3327 51.6575 12.6624C51.7338 12.8272 51.8113 12.9921 51.872 13.1165C51.9023 13.1788 51.9286 13.2309 51.9483 13.2677C51.9581 13.286 51.966 13.3004 51.9722 13.3103C51.9754 13.3153 51.9783 13.3195 51.9803 13.3219C51.9813 13.3232 51.9819 13.3239 51.9824 13.3245C51.9824 13.3245 51.9823 13.3249 51.9823 13.3249L51.9827 13.3249C51.9856 13.3258 51.9876 13.3272 51.9895 13.3293C51.9916 13.3316 51.9935 13.3344 51.9959 13.3378C52.0007 13.3446 52.0063 13.3537 52.0129 13.3654C52.0261 13.3888 52.0428 13.4219 52.0618 13.4608C52.0997 13.5387 52.1468 13.6412 52.1926 13.7437C52.2843 13.9487 52.3711 14.1521 52.3712 14.1523L52.3712 14.1528C52.3713 14.153 52.4983 14.3967 52.6393 14.6472C52.7098 14.7725 52.784 14.8993 52.8472 14.9982C52.8788 15.0477 52.9075 15.0903 52.9319 15.122C52.9562 15.1536 52.9766 15.1742 52.9883 15.1799L52.9894 15.1805L52.9902 15.181C52.9902 15.181 53.128 15.3414 53.2702 15.5021C53.3412 15.5824 53.4134 15.6629 53.4699 15.7233C53.4982 15.7535 53.5226 15.7789 53.5409 15.7965C53.55 15.8053 53.5573 15.812 53.5631 15.8167C53.5659 15.8191 53.5683 15.8209 53.5701 15.822C53.5718 15.8231 53.5731 15.8233 53.5723 15.8232L53.5744 15.8231L53.5759 15.8246C53.5759 15.8246 53.7827 16.0029 54.0047 16.1884C54.1157 16.2811 54.2308 16.3757 54.3253 16.4507C54.3725 16.4883 54.4144 16.5208 54.4485 16.5459C54.4825 16.5709 54.5089 16.5886 54.5231 16.5955L54.5236 16.5956L54.524 16.5957C54.524 16.5957 54.7441 16.7401 54.9687 16.8846C55.081 16.9569 55.1942 17.0291 55.2816 17.0835C55.3253 17.1107 55.3629 17.1335 55.3902 17.1495C55.4039 17.1575 55.4148 17.1635 55.423 17.1677C55.4272 17.1699 55.4304 17.1716 55.4329 17.1727C55.4354 17.1737 55.4374 17.1743 55.4368 17.1742L55.438 17.1744L56.6089 17.8142L57.8088 18.4412C57.8088 18.4412 58.1252 18.6138 58.4436 18.79C58.6028 18.878 58.7627 18.9671 58.8834 19.0357C58.9437 19.07 58.994 19.0992 59.03 19.1207C59.048 19.1314 59.0626 19.1402 59.0727 19.1468C59.0778 19.1501 59.0816 19.1528 59.0845 19.155C59.086 19.1561 59.0875 19.157 59.0886 19.1581C59.0891 19.1586 59.0895 19.1591 59.09 19.1596L59.0907 19.1605C59.0923 19.1614 59.3256 19.3128 59.5729 19.478C59.6969 19.5608 59.8243 19.6467 59.9268 19.7184C60.029 19.7899 60.1056 19.8464 60.1318 19.8729L60.1322 19.8732C60.1325 19.8735 60.3452 20.0483 60.5774 20.2265C60.6937 20.3157 60.8148 20.4058 60.9165 20.4748C60.9674 20.5092 61.0133 20.5382 61.0514 20.5594C61.0894 20.5807 61.1199 20.594 61.1378 20.5966L61.139 20.5968L61.1398 20.5973C61.1398 20.5973 61.1771 20.6198 61.2403 20.6515C61.3034 20.6832 61.3924 20.7241 61.4956 20.7607C61.5989 20.7974 61.7164 20.8297 61.8395 20.8394C61.9011 20.8443 61.9641 20.8435 62.0275 20.8347C62.0908 20.826 62.1546 20.8093 62.2177 20.7824C62.2177 20.7824 62.2374 20.7698 62.262 20.7421C62.2867 20.7144 62.3163 20.6715 62.3361 20.6107C62.346 20.5803 62.3535 20.5455 62.3566 20.5059C62.3598 20.4663 62.3586 20.422 62.3512 20.3725C62.3438 20.323 62.3301 20.2685 62.3083 20.2085C62.2866 20.1485 62.2567 20.0831 62.2168 20.0119L62.2164 20.0114C62.2164 20.0114 62.1474 19.8777 61.9803 19.6547C61.8967 19.5431 61.7886 19.4092 61.6524 19.2585C61.5161 19.1078 61.3517 18.9403 61.1555 18.7614L60.0187 17.7859L58.5467 16.609C58.5467 16.609 58.2844 16.4063 58.0221 16.1989C57.891 16.0952 57.7599 15.9903 57.6617 15.9092C57.6126 15.8687 57.5716 15.8339 57.543 15.8082C57.5287 15.7954 57.5176 15.7848 57.5098 15.7767C57.5059 15.7727 57.5029 15.7695 57.5007 15.7666C57.4995 15.7651 57.4988 15.7638 57.4981 15.7625C57.4978 15.7618 57.4975 15.7611 57.4972 15.7602C57.4971 15.7597 57.4972 15.7593 57.497 15.7589C57.4969 15.7584 57.4971 15.7572 57.4969 15.7571L57.5029 15.7632L57.5005 15.7524L57.5018 15.7522L60.4975 14.6816L60.4979 14.682C60.4997 14.6815 60.5015 14.6807 60.5045 14.6794C60.5117 14.6763 60.5226 14.6712 60.5364 14.6642C60.5641 14.6502 60.6041 14.6284 60.6539 14.599C60.7535 14.5402 60.8924 14.4505 61.0503 14.3283C61.1293 14.2671 61.2131 14.198 61.2991 14.1206C61.3852 14.0432 61.4736 13.9576 61.5617 13.8636C61.6499 13.7696 61.7377 13.6673 61.8229 13.5565C61.9082 13.4456 61.9907 13.3262 62.068 13.1982C62.1452 13.0705 62.2331 12.9411 62.2993 12.7988C62.2993 12.7988 62.352 12.6902 62.4293 12.5088C62.5066 12.3274 62.6086 12.0732 62.7071 11.7818C62.76 11.6252 62.8095 11.4558 62.8552 11.2824C62.9009 11.109 62.9428 10.9317 62.9806 10.759C63.0136 10.6083 63.0552 10.4531 63.0732 10.3104L63.3453 8.78627C63.3453 8.78627 63.3633 8.71294 63.3916 8.59274C63.4114 8.50865 63.432 8.40314 63.4347 8.2907C63.436 8.23448 63.4327 8.17652 63.4227 8.11867C63.4127 8.06082 63.396 8.00305 63.37 7.94721L63.3696 7.94673C63.3696 7.94673 63.2589 7.65204 63.0764 7.28427C62.9697 7.0692 62.8395 6.82897 62.7019 6.60723C62.6331 6.49637 62.5625 6.39016 62.492 6.29399C62.4215 6.19783 62.3511 6.1117 62.2829 6.04113L62.2826 6.04066C62.2826 6.04066 62.217 5.94897 62.0501 5.772C61.9917 5.71012 61.9204 5.63841 61.8337 5.55822C61.747 5.47803 61.6449 5.38934 61.5249 5.29357C61.4049 5.1978 61.2669 5.09499 61.1085 4.98639C60.9501 4.87779 60.7712 4.76341 60.5694 4.64472C60.569 4.64456 60.255 4.50603 59.9197 4.36341C59.752 4.29207 59.579 4.21987 59.4374 4.16328C59.2959 4.10669 59.1851 4.06577 59.1446 4.05782L59.1442 4.05776L57.9438 3.6777ZM57.7822 5.405L57.7828 5.4051L58.4556 5.63049L58.4568 5.6307C58.5219 5.64096 58.6409 5.68622 58.7847 5.74866C58.9289 5.8113 59.0974 5.89089 59.2579 5.96949C59.5788 6.12661 59.8673 6.27892 59.8677 6.2791L59.8681 6.27917C59.9887 6.33123 60.1277 6.41627 60.2686 6.51451C60.4095 6.61275 60.5522 6.7242 60.68 6.82924C60.9357 7.0394 61.131 7.2238 61.131 7.2238L61.1314 7.22387C61.2041 7.29777 61.2692 7.37157 61.3272 7.44411C61.3853 7.51664 61.4363 7.58791 61.4813 7.65682C61.5713 7.79465 61.6367 7.92303 61.684 8.03289C61.7312 8.14276 61.7603 8.23408 61.7776 8.29801C61.7948 8.36193 61.8003 8.39843 61.8003 8.39843L61.8005 8.39973L61.4871 9.83432C61.443 10.0459 61.3942 10.2376 61.3429 10.4109C61.2917 10.5842 61.2379 10.7392 61.1839 10.8776C61.13 11.016 61.0759 11.1378 61.0238 11.2447C60.9717 11.3515 60.9217 11.4434 60.8761 11.522C60.7949 11.6617 60.7283 11.7598 60.6819 11.823C60.6355 11.8862 60.6093 11.9146 60.6093 11.9146C60.5686 11.9537 60.5338 12.0009 60.4951 12.0511C60.4564 12.1012 60.4137 12.1543 60.3571 12.2054C60.2753 12.2792 60.1803 12.3538 60.0774 12.4278C59.9746 12.5017 59.8639 12.5749 59.7508 12.646C59.5245 12.7882 59.2883 12.9218 59.0853 13.0349C58.7602 13.2161 58.5235 13.3492 58.5235 13.3492L56.2071 14.6451L56.2035 14.647L55.7197 14.1642L55.3275 13.733C55.272 13.6873 55.2248 13.6192 55.1605 13.551C55.0548 13.4388 54.9413 13.2979 54.8317 13.149C54.7221 13.0001 54.6163 12.8432 54.5259 12.6988C54.3505 12.4189 54.2333 12.1858 54.2333 12.1858L54.2333 12.1854C54.2294 12.177 54.1977 12.1141 54.1528 12.0254C54.1078 11.9368 54.0494 11.8222 53.9916 11.7086C53.876 11.4813 53.7625 11.2586 53.7625 11.2586L53.7625 11.2582C53.7625 11.2582 53.701 11.1318 53.6078 10.9557C53.5147 10.7796 53.39 10.5537 53.2637 10.355C53.2003 10.2552 53.1427 10.144 53.0919 10.0335C53.0412 9.92301 52.9973 9.81318 52.9614 9.71572C52.8895 9.52079 52.8492 9.37572 52.8492 9.37572C52.8346 9.3199 52.8293 9.26361 52.8313 9.20781C52.8334 9.152 52.8426 9.09673 52.8571 9.04295C52.8859 8.93539 52.9352 8.83383 52.9881 8.74639C53.0409 8.65895 53.0975 8.58547 53.1408 8.53384C53.184 8.48221 53.2141 8.45244 53.2141 8.45244L54.1674 7.53424L55.0623 6.64992C55.063 6.64767 55.0638 6.6455 55.0655 6.64307C55.0675 6.63976 55.0703 6.63605 55.0739 6.63171C55.0809 6.62308 55.0907 6.61197 55.1032 6.59916C55.1282 6.57354 55.1635 6.54036 55.2054 6.50178C55.2891 6.42461 55.3998 6.32691 55.5103 6.23095C55.731 6.03928 55.9501 5.85464 55.9507 5.85417C55.9527 5.84925 55.9563 5.84449 55.9617 5.83882C55.9681 5.8321 55.9765 5.82412 55.9871 5.81552C56.0083 5.7983 56.0376 5.77762 56.072 5.75435C56.1407 5.70781 56.2304 5.65175 56.3197 5.5978C56.4985 5.4899 56.675 5.39009 56.675 5.39009L56.676 5.38941L56.6768 5.38954C56.7603 5.37069 56.871 5.36227 56.9902 5.36021C57.1093 5.35815 57.2369 5.36244 57.3542 5.36909C57.5888 5.38239 57.7822 5.405 57.7822 5.405Z" fill="#3F76CB"/>
<path fill-rule="evenodd" clip-rule="evenodd" d="M69.4055 30.4674C65.1846 29.7608 62.2028 26.4511 62.74 23.0652C63.2763 19.686 67.128 17.5135 71.3489 18.2202C75.5698 18.9268 78.5506 22.2431 78.0144 25.6224C77.4771 29.0082 73.6264 31.174 69.4055 30.4674Z" fill="#FFD52D"/>
<path d="M69.4055 30.4674C65.1846 29.7608 62.2028 26.4511 62.74 23.0652C63.2763 19.686 67.128 17.5135 71.3489 18.2202C75.5698 18.9268 78.5506 22.2431 78.0144 25.6224C77.4771 29.0082 73.6264 31.174 69.4055 30.4674Z" fill="#FFD52D" stroke="#181818" stroke-width="0.993533" stroke-miterlimit="10" stroke-linejoin="round"/>
<path d="M66.1633 26.5302C66.1633 26.5302 69.466 30.7072 72.131 28.226C72.131 28.226 73.2705 27.1334 73.5208 26.7095C73.5575 26.6474 73.595 26.577 73.6053 26.5253C73.6053 26.5253 70.5655 27.7807 66.7229 26.7023C66.5381 26.6504 66.3515 26.5932 66.1633 26.5302Z" fill="#782121" stroke="black" stroke-width="0.0196343"/>
<path d="M72.8271 26.7693C71.6801 27.0706 69.3763 27.453 66.6818 26.6875L66.6415 26.6738C66.6463 26.6763 66.6862 26.707 66.691 26.7095C67.0382 26.8894 67.422 27.1229 68.2351 27.3716C69.3951 27.7264 71.3352 27.6466 72.829 26.7702L72.8271 26.7693Z" fill="white" stroke="black" stroke-width="0.0196343"/>
<path d="M70.5792 27.9567C70.314 27.8341 70.1042 27.7613 70.1042 27.7613C68.6904 27.3635 68.0656 28.2244 68.0656 28.2244L68.0515 28.2532C69.0649 28.9192 70.3516 29.3682 71.5665 28.6522C71.3787 28.3687 70.9305 28.1191 70.5792 27.9567Z" fill="#FF0000" stroke="black" stroke-width="0.0196343"/>
<path d="M72.5388 27.8186C70.187 26.8627 69.8556 28.3077 69.8556 28.3077C69.8006 28.5035 69.7398 28.775 69.7721 28.9746C69.7725 28.9747 69.7727 28.9747 69.7731 28.9748C69.9653 29.0063 70.16 29.0197 70.3558 29.0114C70.3819 29.0103 70.408 29.0089 70.4342 29.007L70.4346 29.007C70.4527 29.0057 70.4709 29.004 70.489 29.0023C70.5096 29.0004 70.5303 28.9982 70.5509 28.9957C70.5736 28.993 70.5964 28.99 70.6191 28.9867C70.6409 28.9835 70.6627 28.9801 70.6845 28.9763C70.6998 28.9737 70.7151 28.9712 70.7304 28.9683C70.7308 28.9682 70.731 28.9682 70.7315 28.968C70.7619 28.9622 70.7924 28.9556 70.8229 28.9485C70.8374 28.9452 70.8519 28.9417 70.8664 28.9381C70.8982 28.9302 70.93 28.9217 70.9618 28.9124C70.9739 28.9089 70.986 28.905 70.9981 28.9013C71.0275 28.8922 71.0569 28.8828 71.0862 28.8726C71.099 28.8681 71.1117 28.8635 71.1244 28.8588C71.1551 28.8476 71.1858 28.8357 71.2164 28.8232C71.2255 28.8194 71.2347 28.8158 71.2438 28.8119C71.2781 28.7974 71.3125 28.7818 71.3467 28.7655C71.3577 28.7603 71.3686 28.7551 71.3795 28.7497C71.4138 28.7328 71.4481 28.7152 71.4823 28.6965C71.4915 28.6916 71.5006 28.6863 71.5098 28.6812C71.5456 28.6611 71.5815 28.6404 71.6172 28.6183C71.6182 28.6179 71.6191 28.6174 71.6199 28.6167C71.6223 28.6152 71.6246 28.6137 71.6269 28.6122C71.6632 28.5896 71.6994 28.5657 71.7356 28.5409C71.7421 28.5364 71.7487 28.532 71.7552 28.5274C71.7917 28.502 71.8281 28.4752 71.8645 28.4476C71.8719 28.4419 71.8794 28.4361 71.8869 28.4303C71.9233 28.4021 71.9596 28.3728 71.9958 28.3422C72.0015 28.3374 72.0072 28.3324 72.0129 28.3275C72.0512 28.2947 72.0895 28.2609 72.1276 28.2254C72.1276 28.2254 72.3079 28.0519 72.5391 27.8185L72.5388 27.8186Z" fill="#FF0000" stroke="black" stroke-width="0.0196343"/>
<path d="M66.1633 26.5301C66.1633 26.5301 69.466 30.7071 72.131 28.226C72.1311 28.2264 72.1014 28.2502 72.129 28.2269C72.3266 28.0601 73.1963 27.2976 73.5209 26.7094C73.5558 26.6462 73.595 26.5769 73.6054 26.5252C73.6054 26.5252 70.5656 27.7806 66.7229 26.7022C66.5382 26.6503 66.3515 26.5932 66.1633 26.5301Z" fill="#C83737"/>
<path d="M72.8271 26.7693C71.6801 27.0706 69.3763 27.453 66.6818 26.6875L66.6415 26.6738C66.6463 26.6763 66.6862 26.707 66.691 26.7095C67.0382 26.8894 67.422 27.1229 68.2351 27.3716C69.3951 27.7264 71.3352 27.6466 72.829 26.7702L72.8271 26.7693Z" fill="white"/>
<path d="M71.4993 27.832C70.7946 27.7125 70.3718 27.8809 70.1215 28.0907C70.077 28.074 70.0253 28.0545 70.0253 28.0545C69.061 27.7833 68.4656 28.0964 68.1838 28.3232C69.3326 29.0307 70.7928 29.4156 72.0998 28.1994C72.1001 28.2003 72.1695 28.1427 72.2766 28.0478C71.9857 27.9403 71.7275 27.8707 71.4993 27.832Z" fill="#FF2A2A"/>
<path d="M66.1633 26.5301C66.1633 26.5301 66.1839 26.603 66.284 26.7173C66.9654 27.4954 69.8074 30.3893 72.131 28.226C72.1311 28.2264 72.1014 28.2502 72.129 28.2269C72.3265 28.0601 72.8848 27.4971 73.5209 26.7094C73.5662 26.6533 73.6489 26.5257 73.6054 26.5252C73.6054 26.5252 70.5655 27.7807 66.7229 26.7022C66.5975 26.667 66.4712 26.6293 66.3441 26.589C66.2716 26.566 66.2237 26.5504 66.1633 26.5301Z" stroke="#181818" stroke-width="0.496766" stroke-linecap="round" stroke-linejoin="round"/>
<path fill-rule="evenodd" clip-rule="evenodd" d="M65.1767 23.4013C63.4876 23.1186 62.3403 21.5135 62.6082 19.8258C62.8772 18.1314 64.4606 16.99 66.1497 17.2726C67.8389 17.5552 68.9938 19.1549 68.7248 20.8492C68.4569 22.5369 66.8659 23.6839 65.1767 23.4013Z" fill="white"/>
<path d="M65.1767 23.4013C63.4876 23.1186 62.3403 21.5135 62.6082 19.8258C62.8772 18.1314 64.4606 16.99 66.1497 17.2726C67.8389 17.5552 68.9938 19.1549 68.7248 20.8492C68.4569 22.5369 66.8659 23.6839 65.1767 23.4013Z" stroke="#181818" stroke-width="0.993533" stroke-miterlimit="10" stroke-linejoin="round"/>
<path fill-rule="evenodd" clip-rule="evenodd" d="M65.5137 21.8743C64.6691 21.733 64.0922 20.9298 64.2267 20.0827C64.3612 19.2355 65.1567 18.662 66.0012 18.8033C66.8458 18.9447 67.4162 19.7467 67.2817 20.5939C67.1472 21.441 66.3583 22.0156 65.5137 21.8743Z" fill="#181818"/>
<path fill-rule="evenodd" clip-rule="evenodd" d="M75.2593 25.0605C73.5702 24.7778 72.4163 23.1715 72.6842 21.4838C72.9532 19.7895 74.5431 18.6491 76.2323 18.9318C77.9214 19.2144 79.0698 20.813 78.8008 22.5073C78.5328 24.195 76.9485 25.3431 75.2593 25.0605Z" fill="white"/>
<path d="M75.2593 25.0605C73.5702 24.7778 72.4163 23.1715 72.6842 21.4838C72.9532 19.7895 74.5431 18.6491 76.2323 18.9318C77.9214 19.2144 79.0698 20.813 78.8008 22.5073C78.5328 24.195 76.9485 25.3431 75.2593 25.0605Z" stroke="#181818" stroke-width="0.993533" stroke-miterlimit="10" stroke-linejoin="round"/>
<path fill-rule="evenodd" clip-rule="evenodd" d="M75.6438 23.3641C74.7926 23.2217 74.2223 22.4196 74.3557 21.5791C74.4902 20.7319 75.2781 20.164 76.1292 20.3064C76.9738 20.4477 77.5452 21.2431 77.4107 22.0903C77.2773 22.9308 76.4884 23.5054 75.6438 23.3641Z" fill="#181818"/>
<path d="M70.4631 17.8766C70.6035 16.1839 71.5158 14.3883 70.9995 12.7156L70.6006 11.0759L69.5411 12.343L70.1641 12.5763" stroke="#181818" stroke-width="1.61385" stroke-miterlimit="10" stroke-linecap="round" stroke-linejoin="round"/>
<path d="M72.3046 18.1761C72.697 16.5254 72.3826 14.5253 73.3914 13.1068L74.2787 11.6816L74.8901 13.2273L74.2268 13.2461" stroke="#181818" stroke-width="1.61385" stroke-miterlimit="10" stroke-linecap="round" stroke-linejoin="round"/>
<path d="M67.7867 30.2993L67.4707 32.2827L68.2705 34.2684" stroke="#181818" stroke-width="1.38266" stroke-miterlimit="10" stroke-linecap="round" stroke-linejoin="round"/>
<path d="M70.1873 30.6943L69.8703 32.6844L70.6701 34.67" stroke="#181818" stroke-width="1.38266" stroke-miterlimit="10" stroke-linecap="round" stroke-linejoin="round"/>
</g>
<defs>
<clipPath id="clip0_1_68">
<rect width="104" height="42" fill="white"/>
</clipPath>
</defs>
</svg>
