<?xml version="1.0" standalone="no"?>
<!DOCTYPE svg PUBLIC "-//W3C//DTD SVG 20010904//EN"
 "http://www.w3.org/TR/2001/REC-SVG-20010904/DTD/svg10.dtd">
<svg version="1.0" xmlns="http://www.w3.org/2000/svg"
 width="650.000000pt" height="650.000000pt" viewBox="0 0 650.000000 650.000000"
 preserveAspectRatio="xMidYMid meet">
<metadata>
Created by potrace 1.14, written by Peter Selinger 2001-2017
</metadata>
<g transform="translate(0.000000,650.000000) scale(0.100000,-0.100000)"
fill="#000000" stroke="none">
<path d="M1030 6487 c0 -4 26 -46 58 -94 31 -48 62 -96 67 -106 6 -9 186 -292
400 -629 215 -336 392 -616 394 -622 2 -6 7 -13 10 -16 6 -5 148 -226 196
-304 11 -19 223 -351 470 -739 248 -389 462 -726 476 -750 l27 -44 -242 -365
c-132 -200 -392 -591 -576 -868 -184 -278 -337 -509 -340 -515 -3 -5 -129
-197 -281 -425 -370 -557 -644 -972 -654 -989 -6 -10 -4 -12 6 -5 8 4 19 12
24 17 13 11 366 262 437 311 32 21 65 46 75 55 10 9 38 29 62 45 25 16 50 33
55 38 6 5 272 195 591 423 507 362 1258 897 1885 1346 107 76 344 245 525 375
182 129 339 242 350 250 172 123 270 194 352 249 87 60 92 50 -79 177 -182
135 -329 244 -343 255 -5 5 -35 26 -65 48 -30 22 -60 44 -67 50 -21 18 -36 28
-133 100 -52 38 -104 78 -114 87 -11 10 -23 18 -27 18 -4 0 -14 6 -21 13 -7 7
-47 37 -88 68 -41 31 -163 121 -270 200 -577 429 -761 566 -818 608 -35 25
-69 51 -75 57 -7 5 -46 35 -87 65 -41 29 -82 59 -90 66 -14 12 -73 55 -540
403 -107 79 -316 235 -465 345 -395 294 -687 511 -885 658 -96 72 -181 134
-187 140 -7 5 -13 7 -13 4z"/>
<path d="M1210 5512 c0 -6 9 -69 21 -139 26 -160 27 -168 34 -223 3 -25 7 -52
10 -60 2 -8 14 -76 25 -150 24 -156 29 -186 35 -220 2 -14 7 -43 10 -65 3 -22
14 -92 25 -155 10 -63 21 -133 25 -155 6 -47 33 -214 42 -265 3 -19 7 -47 9
-63 2 -15 6 -39 9 -55 3 -15 8 -45 11 -67 2 -22 7 -49 9 -61 3 -12 7 -39 10
-60 4 -21 15 -92 26 -157 10 -65 21 -134 24 -155 3 -20 7 -48 9 -62 3 -14 7
-43 11 -65 3 -22 12 -78 20 -125 17 -101 22 -134 35 -220 5 -36 21 -137 36
-225 14 -88 27 -169 29 -180 1 -11 5 -40 9 -65 4 -25 10 -58 12 -75 3 -16 7
-37 9 -45 2 -8 6 -37 10 -65 3 -27 8 -57 10 -65 2 -8 7 -35 10 -60 3 -25 7
-56 9 -70 3 -14 15 -86 27 -160 12 -74 23 -142 24 -150 2 -8 4 -24 4 -35 1
-11 212 296 479 698 l479 718 -165 247 c-91 136 -323 483 -515 772 -193 289
-353 527 -357 530 -4 3 -9 10 -11 16 -7 18 -324 489 -331 492 -5 2 -8 7 -8 12
0 6 -142 223 -156 239 -2 2 -4 -1 -4 -7z"/>
<path d="M5313 2717 c-45 -34 -107 -80 -138 -102 -31 -22 -66 -48 -78 -57 -12
-9 -159 -117 -327 -239 -168 -122 -336 -246 -375 -274 -38 -28 -131 -96 -205
-150 -74 -54 -169 -123 -210 -153 -41 -31 -94 -69 -118 -86 -23 -17 -58 -42
-76 -56 -18 -14 -44 -33 -57 -42 -13 -10 -127 -94 -254 -186 -126 -92 -258
-188 -292 -212 -261 -190 -308 -225 -311 -232 -2 -4 -10 -8 -17 -8 -7 0 -15
-4 -17 -8 -1 -4 -119 -92 -260 -196 -142 -103 -258 -189 -258 -190 0 -2 33 14
73 35 39 20 117 59 171 86 55 26 108 53 118 58 40 21 713 359 718 360 5 2 128
63 448 224 105 53 192 96 192 96 0 -1 60 29 133 66 197 99 816 409 821 410 3
1 62 31 132 68 79 41 129 72 130 83 1 9 7 40 14 70 6 29 13 64 15 78 2 14 11
59 20 100 9 41 18 86 20 100 6 40 75 383 81 403 8 27 -5 20 -93 -46z"/>
</g>
</svg>
